<?xml version="1.0" encoding="UTF-8" standalone="no"?>
<svg
   viewBox="0 0 64 64"
   width="64"
   height="64"
   version="1.1"
   id="svg3"
   sodipodi:docname="p_992301000000_.svg"
   inkscape:version="1.3.2 (091e20e, 2023-11-25, custom)"
   inkscape:export-filename="p_992301000000_render.png"
   inkscape:export-xdpi="1536"
   inkscape:export-ydpi="1536"
   xmlns:inkscape="http://www.inkscape.org/namespaces/inkscape"
   xmlns:sodipodi="http://sodipodi.sourceforge.net/DTD/sodipodi-0.dtd"
   xmlns="http://www.w3.org/2000/svg"
   xmlns:svg="http://www.w3.org/2000/svg">
  <defs
     id="defs3">
    <filter
       inkscape:collect="always"
       style="color-interpolation-filters:sRGB"
       id="filter7"
       x="-0.10869712"
       y="-0.07128108"
       width="1.2176502"
       height="1.1425477">
      <feGaussianBlur
         inkscape:collect="always"
         stdDeviation="1.3989"
         id="feGaussianBlur7" />
    </filter>
  </defs>
  <sodipodi:namedview
     id="namedview3"
     pagecolor="#ffffff"
     bordercolor="#000000"
     borderopacity="0.25"
     inkscape:showpageshadow="2"
     inkscape:pageopacity="0.0"
     inkscape:pagecheckerboard="true"
     inkscape:deskcolor="#d1d1d1"
     showgrid="false"
     inkscape:zoom="18.703125"
     inkscape:cx="31.973266"
     inkscape:cy="32"
     inkscape:window-width="2560"
     inkscape:window-height="1411"
     inkscape:window-x="-9"
     inkscape:window-y="-9"
     inkscape:window-maximized="1"
     inkscape:current-layer="svg3">
    <inkscape:grid
       id="grid3"
       units="px"
       originx="0"
       originy="0"
       spacingx="1"
       spacingy="1"
       empcolor="#0099e5"
       empopacity="0.30196078"
       color="#0099e5"
       opacity="0.14901961"
       empspacing="5"
       dotted="false"
       gridanglex="30"
       gridanglez="30"
       visible="false" />
  </sodipodi:namedview>
  <g
     id="g6">
    <path
       d="M 38.44 15.81Q 37.18 11.83 32.94 10.82C 25.56 9.05 20.95 12.54 16.69 17.94A 1.32 1.31 -50.28 0 1 14.79 18.12Q 14.13 17.55 14.39 16.54C 16.05 10.21 23.16 5.74 29.07 5.25C 39.04 4.42 49.65 7.93 49.72 19.76C 49.77 27.82 44.33 31.92 36.7 32.89A 3.67 3.66 12.12 0 0 34.03 34.61Q 31.8 38.23 31.3 43.09A 1.09 1.08 -10.86 0 1 30.72 43.94Q 29.26 44.7 28.18 43.33Q 24.5 38.68 24.47 33.87C 24.45 30.44 26.43 27.42 29.88 26.69C 35.56 25.49 40.54 22.44 38.44 15.81Z"
       fill="#ffffff"
       stroke="#ffffff"
       id="path2" />
    <path
       d="M 35.31 53.83A 5.43 5.43 0 0 1 29.88 59.26A 5.43 5.43 0 0 1 24.45 53.83A 5.43 5.43 0 0 1 29.88 48.4A 5.43 5.43 0 0 1 35.31 53.83Z"
       fill="#ffffff"
       stroke="#ffffff"
       id="path3" />
  </g>
  <g
     id="g7"
     style="filter:url(#filter7)">
    <path
       d="M 38.44 15.81Q 37.18 11.83 32.94 10.82C 25.56 9.05 20.95 12.54 16.69 17.94A 1.32 1.31 -50.28 0 1 14.79 18.12Q 14.13 17.55 14.39 16.54C 16.05 10.21 23.16 5.74 29.07 5.25C 39.04 4.42 49.65 7.93 49.72 19.76C 49.77 27.82 44.33 31.92 36.7 32.89A 3.67 3.66 12.12 0 0 34.03 34.61Q 31.8 38.23 31.3 43.09A 1.09 1.08 -10.86 0 1 30.72 43.94Q 29.26 44.7 28.18 43.33Q 24.5 38.68 24.47 33.87C 24.45 30.44 26.43 27.42 29.88 26.69C 35.56 25.49 40.54 22.44 38.44 15.81Z"
       fill="#ffffff"
       stroke="#ffffff"
       id="path6" />
    <path
       d="M 35.31 53.83A 5.43 5.43 0 0 1 29.88 59.26A 5.43 5.43 0 0 1 24.45 53.83A 5.43 5.43 0 0 1 29.88 48.4A 5.43 5.43 0 0 1 35.31 53.83Z"
       fill="#ffffff"
       stroke="#ffffff"
       id="path7" />
  </g>
</svg>
